<mxfile host="app.diagrams.net" modified="2023-02-28T08:48:18.320Z" agent="5.0 (Windows NT 10.0; Win64; x64) AppleWebKit/537.36 (KHTML, like Gecko) Chrome/110.0.0.0 Safari/537.36 Edg/110.0.1587.57" etag="Iu-tBB84o7OJgK8dWSA5" version="20.8.23" type="github">
  <diagram name="Страница 1" id="1HfWrBZlKIKA0POK1_8p">
    <mxGraphModel dx="1434" dy="796" grid="1" gridSize="10" guides="1" tooltips="1" connect="1" arrows="1" fold="1" page="1" pageScale="1" pageWidth="827" pageHeight="1169" math="0" shadow="0">
      <root>
        <mxCell id="0" />
        <mxCell id="1" parent="0" />
        <mxCell id="0DsEQqlgE13FTTNn6HHM-1" value="Клиент" style="shape=umlActor;verticalLabelPosition=bottom;verticalAlign=top;html=1;" vertex="1" parent="1">
          <mxGeometry x="10" y="620" width="30" height="60" as="geometry" />
        </mxCell>
        <mxCell id="0DsEQqlgE13FTTNn6HHM-2" value="Мастер" style="shape=umlActor;verticalLabelPosition=bottom;verticalAlign=top;html=1;" vertex="1" parent="1">
          <mxGeometry x="740" y="620" width="30" height="60" as="geometry" />
        </mxCell>
        <mxCell id="0DsEQqlgE13FTTNn6HHM-3" value="Записаться" style="ellipse;whiteSpace=wrap;html=1;" vertex="1" parent="1">
          <mxGeometry x="130" y="570" width="140" height="70" as="geometry" />
        </mxCell>
        <mxCell id="0DsEQqlgE13FTTNn6HHM-4" value="Отменить запись" style="ellipse;whiteSpace=wrap;html=1;" vertex="1" parent="1">
          <mxGeometry x="130" y="700" width="140" height="70" as="geometry" />
        </mxCell>
      </root>
    </mxGraphModel>
  </diagram>
</mxfile>
